<svg width="24" height="22" viewBox="0 0 24 22" fill="none" xmlns="http://www.w3.org/2000/svg">
<path d="M19.5106 18.0213C18.5849 18.0213 17.8394 18.7669 17.8394 19.6925C17.8394 20.6182 18.5849 21.3637 19.5106 21.3637C20.4362 21.3637 21.1818 20.6182 21.1818 19.6925C21.182 18.7669 20.4362 18.0213 19.5106 18.0213ZM19.5106 20.3353C19.1506 20.3353 18.8678 20.0525 18.8678 19.6925C18.8678 19.3325 19.1506 19.0497 19.5106 19.0497C19.8705 19.0497 20.1534 19.3325 20.1534 19.6925C20.1534 20.0525 19.8705 20.3353 19.5106 20.3353Z" fill="white"/>
<path d="M8.71125 18.0213C7.78561 18.0213 7.04004 18.7669 7.04004 19.6925C7.04004 20.6182 7.78561 21.3637 8.71125 21.3637C9.63689 21.3637 10.3825 20.6182 10.3825 19.6925C10.3825 18.7669 9.63689 18.0213 8.71125 18.0213ZM8.71125 20.3353C8.35129 20.3353 8.06844 20.0525 8.06844 19.6925C8.06844 19.3325 8.35129 19.0497 8.71125 19.0497C9.07121 19.0497 9.35406 19.3325 9.35406 19.6925C9.35406 20.0525 9.07121 20.3353 8.71125 20.3353Z" fill="white"/>
<path d="M22.5188 4.05959C22.1332 3.62251 21.5931 3.36532 21.0018 3.36532H6.32003L6.24291 2.82526C6.06283 1.51398 4.95729 0.536865 3.6202 0.536865H0.611857C0.329012 0.536865 0.0976562 0.768235 0.0976562 1.05107C0.0976562 1.33391 0.329026 1.56527 0.611857 1.56527H3.6202C4.41724 1.56527 5.11152 2.15661 5.21432 2.97949L5.34292 3.95661L6.5514 13.0845L6.8086 14.9614C6.98867 16.2727 8.09421 17.2498 9.4313 17.2498H21.1818C21.4647 17.2498 21.696 17.0185 21.696 16.7356C21.696 16.4528 21.4647 16.2214 21.1818 16.2214H9.40559C8.60855 16.2214 7.91427 15.6301 7.81147 14.8072L7.6314 13.5216H20.2562C21.2846 13.5216 22.1331 12.7502 22.2617 11.7474L23.0331 5.62786C23.0844 5.06238 22.9045 4.49666 22.5188 4.05959H22.5188ZM21.7475 4.72807C21.9276 4.93379 22.0304 5.21665 21.9789 5.52511L21.6704 7.99359H18.1221L18.5848 4.39395H21.0018C21.3103 4.39377 21.5675 4.52237 21.7475 4.72808L21.7475 4.72807ZM17.5564 4.39375L17.0936 7.99339L11.5398 7.99357L11.077 4.39393L17.5564 4.39375ZM10.0227 4.39375L10.4854 7.99339L6.91155 7.99357L6.44882 4.39393L10.0227 4.39375ZM7.06583 9.02198H10.6398L11.1028 12.4932H7.50294L7.06583 9.02198ZM12.1312 12.4932L11.6684 9.02198H16.9395L16.4765 12.4932H12.1312ZM20.2563 12.4932H17.5308L17.9935 9.02198H21.5675L21.2332 11.6189C21.1819 12.1333 20.7448 12.4932 20.2563 12.4932H20.2563Z" fill="white"/>
</svg>
