<svg width="13" height="13" viewBox="0 0 13 13" fill="none" xmlns="http://www.w3.org/2000/svg">
<path fill-rule="evenodd" clip-rule="evenodd" d="M0.0267797 4.01073C-0.265468 1.5266 1.92642 0.113906 2.12123 0.0655363C2.26741 0.0167724 2.51088 -0.275458 3.48503 0.942279C4.41052 2.16001 5.09242 3.13416 4.50793 3.67C3.87469 4.20583 2.94931 4.88774 3.43637 5.81311C3.82603 6.64119 6.35885 9.12544 7.13827 9.51501C8.11242 10.0021 8.74566 9.07658 9.28138 8.49211C9.81721 7.85887 10.84 8.54087 12.0577 9.46626C13.2755 10.4404 12.9832 10.684 12.9345 10.8788C12.8857 11.025 11.4733 13.2169 8.94033 12.9733C6.31004 12.681 0.270223 6.64116 0.026635 4.01093L0.0267797 4.01073Z" fill="black"/>
</svg>
