<svg width="14" height="19" viewBox="0 0 14 19" fill="none" xmlns="http://www.w3.org/2000/svg">
<path d="M0.953381 3.45135e-07C0.430013 3.45135e-07 0 0.431023 0 0.951833V16.7842C0 17.305 0.430013 17.7355 0.953381 17.7355H5.3848L3.99755 13.9341H1.59033C1.50552 13.9345 1.42383 13.9013 1.36374 13.8415C1.30365 13.7818 1.26998 13.7007 1.27026 13.6162V2.85216C1.26998 2.76763 1.30365 2.68648 1.36374 2.62682C1.42383 2.56703 1.50551 2.5338 1.59033 2.53423H11.1369C11.3126 2.53493 11.4545 2.67729 11.454 2.85216V10.7756C11.9377 10.8181 12.3619 11.0537 12.6497 11.4163C12.6744 11.4127 12.7011 11.4139 12.7268 11.4115V0.951833C12.7268 0.431023 12.2968 0 11.7734 0L0.953381 3.45135e-07ZM5.40698 1.26723H7.31702C7.40254 1.26539 7.48536 1.29791 7.54659 1.35756C7.60782 1.41708 7.64234 1.49879 7.64234 1.58389C7.64234 1.66914 7.60782 1.75085 7.54659 1.81036C7.48536 1.87002 7.40254 1.90253 7.31702 1.90055H5.40698C5.32146 1.90253 5.23864 1.87002 5.17741 1.81036C5.11618 1.75085 5.08166 1.66914 5.08166 1.58389C5.08166 1.49879 5.11618 1.41708 5.17741 1.35756C5.23864 1.29791 5.32146 1.26539 5.40698 1.26723ZM6.36291 4.43512C5.83939 4.43512 5.40698 4.86288 5.40698 5.38384C5.40698 5.52874 5.44306 5.6653 5.50273 5.78899C4.50432 5.99934 3.89844 6.56552 3.57906 7.1304C3.42208 7.40805 3.32789 7.684 3.27021 7.91895H7.11429C7.39841 7.72033 7.74276 7.60229 8.11313 7.60229C8.48364 7.60229 8.82812 7.72005 9.11252 7.91895H9.4556C9.39792 7.684 9.30387 7.40805 9.14675 7.1304C8.82725 6.56508 8.22094 5.99835 7.22126 5.78826C7.2805 5.66471 7.3163 5.52857 7.3163 5.3838C7.3163 4.86285 6.88643 4.43508 6.36292 4.43508L6.36291 4.43512ZM8.11311 8.23579C7.50155 8.23579 6.99993 8.73496 6.99993 9.34353V13.425C6.86937 13.2082 6.73839 12.9925 6.6077 12.7756C6.47928 12.5623 6.32102 12.3559 6.09997 12.2097C5.87892 12.0635 5.57689 11.992 5.27773 12.0717C4.6869 12.2292 4.30973 12.8467 4.4971 13.4485L5.80917 17.058C6.14913 18.3207 7.48849 18.9653 7.48849 18.9653C7.53423 18.9887 7.58495 19.0005 7.63638 19H12.3667C12.4818 19 12.5643 18.9784 12.6308 18.9122C12.6308 18.9122 14 17.5875 14 15.8352V13.1423C14 12.5337 13.4978 12.0346 12.8862 12.0346C12.692 12.0346 12.5119 12.0893 12.3524 12.1775C12.209 11.7301 11.7913 11.4007 11.2964 11.4007C11.1017 11.4007 10.9202 11.4561 10.76 11.5447C10.6169 11.0969 10.1987 10.7674 9.70347 10.7674C9.53243 10.7674 9.37204 10.8098 9.22673 10.8793V9.34365C9.22673 8.73508 8.72453 8.23591 8.11296 8.23591L8.11311 8.23579ZM2.84632 8.55245C2.66704 8.56857 2.54359 8.70471 2.54359 8.86728C2.54345 9.5631 3.11682 10.1339 3.81646 10.1339H6.36348V9.34354C6.36348 9.05925 6.43494 8.79066 6.55867 8.55246L2.84632 8.55245ZM9.66819 8.55245C9.79193 8.79052 9.86339 9.05897 9.86339 9.34353V9.69356C10.0583 9.47076 10.1803 9.18393 10.1803 8.86727C10.1798 8.69367 10.0383 8.55315 9.86339 8.55244L9.66819 8.55245Z" fill="#6D6D6D"/>
</svg>
