<svg width="12" height="14" viewBox="0 0 12 14" fill="none" xmlns="http://www.w3.org/2000/svg">
<path d="M5.92826 6.30866C6.76479 6.30866 7.56714 5.97627 8.15868 5.38476C8.75023 4.79322 9.08259 3.99089 9.08259 3.15433C9.08259 2.31778 8.7502 1.51545 8.15868 0.923904C7.56714 0.332361 6.76481 0 5.92826 0C5.0917 0 4.28937 0.332388 3.69783 0.923904C3.10629 1.51545 2.77393 2.31778 2.77393 3.15433C2.77475 3.99065 3.10734 4.79248 3.69878 5.38381C4.29011 5.97525 5.09194 6.30782 5.92826 6.30866ZM5.92826 1.05144C6.48602 1.05144 7.02086 1.27303 7.41526 1.66733C7.80955 2.06172 8.03114 2.59659 8.03114 3.15433C8.03114 3.71207 7.80956 4.24694 7.41526 4.64134C7.02086 5.03563 6.486 5.25722 5.92826 5.25722C5.37052 5.25722 4.83565 5.03563 4.44125 4.64134C4.04696 4.24694 3.82537 3.71207 3.82537 3.15433C3.82537 2.59659 4.04695 2.06172 4.44125 1.66733C4.83565 1.27304 5.37052 1.05144 5.92826 1.05144Z" fill="black"/>
<path d="M11.6987 11.115C11.0351 9.6171 9.81491 8.43591 8.2962 7.82134C6.77747 7.20669 5.07931 7.20669 3.5605 7.82134C2.04177 8.43599 0.821488 9.6172 0.158027 11.115C-0.0939487 11.6791 -0.0420965 12.3326 0.295722 12.8499C0.628004 13.3619 1.19736 13.6704 1.8077 13.6689H10.0489C10.6595 13.6701 11.2288 13.3612 11.5609 12.8488C11.8983 12.3317 11.9502 11.6788 11.6986 11.115H11.6987ZM10.6798 12.2753H10.6799C10.5427 12.4906 10.3042 12.62 10.049 12.6175H1.80779C1.55263 12.62 1.31411 12.4906 1.17693 12.2753C1.03205 12.0563 1.01038 11.778 1.11963 11.5393C1.67174 10.2898 2.68838 9.30424 3.95432 8.79132C5.22037 8.27843 6.63629 8.27843 7.90249 8.79132C9.16854 9.30421 10.1852 10.2897 10.7372 11.5393C10.8464 11.778 10.8248 12.0563 10.6799 12.2753H10.6798Z" fill="black"/>
</svg>
