<svg width="18" height="14" viewBox="0 0 18 14" fill="none" xmlns="http://www.w3.org/2000/svg">
<path d="M17.0889 5.02443H9.47627C9.2616 5.02443 9.08691 5.1988 9.08691 5.41378C9.08691 5.62866 9.2616 5.80314 9.47627 5.80314H12.2794C12.223 5.94301 12.1932 6.09619 12.2033 6.25684C12.2728 7.32048 11.9186 8.27998 11.3623 8.53874C10.8859 8.76037 10.1457 8.43652 9.33119 7.65423C9.30735 7.63187 9.28087 7.61657 9.25513 7.59737V10.1806C9.93098 10.5542 10.5321 10.6836 11.0353 10.6836C11.5397 10.6841 11.9479 10.5567 12.2373 10.4215C13.6041 9.78632 14.4035 8.09885 14.2752 6.12286C14.2682 6.00914 14.238 5.90355 14.1975 5.80366H17.0892C17.3041 5.80366 17.4786 5.62929 17.4786 5.41431C17.4786 5.19932 17.3042 5.02441 17.089 5.02441L17.0889 5.02443Z" fill="black"/>
<path d="M8.50503 2.65016C8.50503 4.11379 7.31849 5.30033 5.85475 5.30033C4.39112 5.30033 3.20459 4.11379 3.20459 2.65016C3.20459 1.18653 4.39112 0 5.85475 0C7.31849 0 8.50503 1.18653 8.50503 2.65016Z" fill="black"/>
<path d="M5.56334 6.15206L4.90234 5.77051V7.2966L5.56334 6.91537L5.94754 6.69343L6.33246 6.9159L6.99324 7.29661V5.77052L6.33246 6.15207L5.94808 6.37423L5.56334 6.15206Z" fill="black"/>
<path d="M2.126 13.8649C2.24541 13.1841 2.39563 12.5423 2.58465 11.9588L2.58454 7.7002C1.30552 9.05602 0.420248 11.1879 0 13.8648L2.126 13.8649Z" fill="black"/>
<path d="M7.97446 6.66855L5.94773 9.73926L4.73103 7.89575L3.91119 6.65332C3.86394 6.67927 3.8172 6.70596 3.77005 6.73402C3.46487 6.91672 3.17522 7.13445 2.90158 7.38572L2.90137 13.8647H8.93558L8.93568 11.0087C8.93621 11.0097 8.93674 11.011 8.93748 11.0131V7.36477C8.67144 7.12342 8.3899 6.91498 8.09401 6.73723C8.05424 6.71308 8.01426 6.69071 7.9746 6.66846L7.97446 6.66855Z" fill="black"/>
</svg>
