<svg width="19" height="19" viewBox="0 0 19 19" fill="none" xmlns="http://www.w3.org/2000/svg">
<path d="M9.40623 2.21307V0.317418C9.40207 0.145251 9.26122 0.0078125 9.08891 0.0078125C8.91674 0.0078125 8.77588 0.145251 8.77158 0.317418V2.21307C8.7695 2.29856 8.802 2.38138 8.86182 2.44253C8.92148 2.50383 9.00341 2.53826 9.08891 2.53826C9.17454 2.53826 9.25647 2.50382 9.31614 2.44253C9.37595 2.38138 9.40846 2.29856 9.40623 2.21307Z" fill="#6D6D6D"/>
<path d="M6.39511 2.21299V0.317343C6.39497 0.142205 6.25307 0.000313809 6.07794 1.74413e-05C5.99348 -0.000873105 5.9123 0.0323732 5.85263 0.0920396C5.79297 0.151704 5.75987 0.23289 5.76076 0.317343V2.21299C5.75987 2.29745 5.79297 2.37863 5.85263 2.4383C5.9123 2.49811 5.99348 2.53121 6.07794 2.53047C6.25307 2.53017 6.39511 2.38813 6.39511 2.21299Z" fill="#6D6D6D"/>
<path d="M15.4322 2.21299V0.317343C15.4331 0.23289 15.3999 0.151704 15.3402 0.0920395C15.2805 0.0323747 15.1992 -0.000871717 15.1149 1.73854e-05C14.9397 0.000314209 14.7979 0.142205 14.7979 0.317343V2.21299C14.7979 2.38813 14.9397 2.53002 15.1149 2.53047C15.1993 2.53136 15.2805 2.49811 15.3403 2.43844C15.4 2.37863 15.4331 2.29745 15.4322 2.21299Z" fill="#6D6D6D"/>
<path d="M12.4199 2.21307V0.317418C12.4157 0.145251 12.2749 0.0078125 12.1026 0.0078125C11.9304 0.0078125 11.7896 0.145251 11.7853 0.317418V2.21307C11.7832 2.29856 11.8157 2.38138 11.8755 2.44253C11.9352 2.50383 12.0171 2.53826 12.1026 2.53826C12.1882 2.53826 12.2701 2.50382 12.3298 2.44253C12.3896 2.38138 12.4221 2.29856 12.4199 2.21307Z" fill="#6D6D6D"/>
<path d="M3.38143 2.21298V0.317326C3.38143 0.14204 3.23939 0 3.06425 0C2.88911 0 2.74707 0.14204 2.74707 0.317326V2.21298C2.74707 2.38811 2.88911 2.53015 3.06425 2.53015C3.23939 2.53015 3.38143 2.38811 3.38143 2.21298Z" fill="#6D6D6D"/>
<path d="M1.4462 6.13241H5.55772C5.66459 6.13241 5.75111 6.21894 5.75111 6.3258C5.75111 6.43266 5.66459 6.51919 5.55772 6.51919H1.4462C1.33933 6.51919 1.25281 6.43266 1.25281 6.3258C1.25281 6.21894 1.33933 6.13241 1.4462 6.13241ZM4.07695 7.81669H1.4462V7.81654C1.33933 7.81654 1.25281 7.73001 1.25281 7.62315C1.25281 7.51629 1.33933 7.42976 1.4462 7.42976H4.07695H4.0768C4.18367 7.42976 4.27035 7.51629 4.27035 7.62315C4.27035 7.73001 4.18367 7.81654 4.0768 7.81654L4.07695 7.81669ZM0 5.10474V17.1749C0.000296823 17.4328 0.102855 17.6802 0.285265 17.8627C0.467675 18.0451 0.71496 18.1476 0.973065 18.1478H17.206C17.4641 18.1476 17.7114 18.0451 17.8938 17.8627C18.0762 17.6803 18.1788 17.4329 18.1791 17.1749V5.10474H0ZM11.3737 15.0859L9.18017 13.9329H9.18032C9.15256 13.9191 9.12214 13.9118 9.09126 13.9117C9.0598 13.912 9.02878 13.9193 9.00028 13.9329L6.81062 15.0859L7.22842 12.6467L7.22857 12.6466C7.23911 12.5835 7.21818 12.5192 7.17247 12.4744L5.39867 10.7451L7.8494 10.3894C7.91263 10.3808 7.96725 10.3407 7.99441 10.283L9.09123 8.06228L10.1881 10.283C10.2152 10.3407 10.2698 10.3808 10.3331 10.3894L12.7838 10.7453L11.01 12.4745V12.4747C10.9643 12.5194 10.9434 12.5836 10.954 12.6467L11.3737 15.0859Z" fill="#6D6D6D"/>
<path d="M18.1789 2.43162C18.18 2.17381 18.0783 1.92624 17.8963 1.74371C17.7145 1.56115 17.4674 1.45859 17.2096 1.45874H15.819V2.21315C15.819 2.46472 15.6848 2.69714 15.467 2.82302C15.2491 2.94873 14.9807 2.94873 14.7629 2.82302C14.545 2.69716 14.4108 2.46473 14.4108 2.21315V1.45874H12.8073V2.21315C12.8104 2.40194 12.7375 2.58405 12.6051 2.71868C12.4727 2.85331 12.2918 2.92914 12.103 2.92914C11.9142 2.92914 11.7333 2.8533 11.6009 2.71868C11.4685 2.58406 11.3958 2.40195 11.3989 2.21315V1.45874H9.79341V2.21315C9.79653 2.40194 9.72365 2.58405 9.59126 2.71868C9.45887 2.85331 9.27794 2.92914 9.08915 2.92914C8.90035 2.92914 8.71943 2.8533 8.58703 2.71868C8.45464 2.58406 8.38177 2.40195 8.38488 2.21315V1.45874H6.7818V2.21315C6.7818 2.46472 6.64763 2.69714 6.42975 2.82302C6.21186 2.94873 5.94351 2.94873 5.72565 2.82302C5.50776 2.69716 5.37359 2.46473 5.37359 2.21315V1.45874H3.76812V2.21315C3.76812 2.46472 3.63395 2.69714 3.41606 2.82302C3.19818 2.94873 2.92983 2.94873 2.71196 2.82302C2.49408 2.69716 2.35991 2.46473 2.35991 2.21315V1.45874H0.973061C0.715104 1.45919 0.467831 1.56174 0.285413 1.74401C0.103003 1.92642 0.000444551 2.1737 0 2.43165V4.71824H18.1791L18.1789 2.43162Z" fill="#6D6D6D"/>
</svg>
