<svg width="376" height="87" viewBox="0 0 376 87" fill="none" xmlns="http://www.w3.org/2000/svg">
<path d="M0 0L376 0.905851V75.1051H278.917C278.917 75.1051 253.843 75.1051 249.088 75.9052C249.409 75.9052 231.632 76.3833 217.668 81.3303C213.905 83.1621 206.948 85.9451 197.359 86.7553C196.528 86.8258 193.585 87.0573 189.642 86.9868C182.044 86.8509 176.119 85.6935 172.605 84.8379C169.352 83.5848 165.548 82.3016 161.184 81.1089C149.293 77.8579 137.982 76.5595 129.674 76.016C117.332 75.8298 104.88 75.6888 92.3184 75.5832C60.8883 75.3215 30.1088 75.3366 0 75.5832V0H0Z" fill="url(#paint0_linear_337_5)"/>
<defs>
<linearGradient id="paint0_linear_337_5" x1="188" y1="66.5" x2="188" y2="-3.02902e-06" gradientUnits="userSpaceOnUse">
<stop/>
<stop offset="1" stop-color="#726A6A" stop-opacity="0"/>
</linearGradient>
</defs>
</svg>
