<svg width="17" height="21" viewBox="0 0 17 21" fill="none" xmlns="http://www.w3.org/2000/svg">
<path d="M9.80752 11.1157H16.3459V20.2693C16.3459 20.63 16.0536 20.9233 15.6919 20.9233H1.3074C0.946645 20.9233 0.653375 20.6305 0.653375 20.2693L0.653831 11.1157H7.19224V19.6158H9.80737L9.80752 11.1157ZM17 6.53849V9.80769C17 10.1684 16.7077 10.4617 16.346 10.4617H9.80757V7.19252H7.19243V10.4617H0.654027C0.29327 10.4617 0 10.1689 0 9.80769V6.53849C0 6.17773 0.292803 5.88446 0.654027 5.88446H2.18507C1.21407 4.68314 0.990989 2.74929 2.13718 1.31995C3.96922 -0.964989 7.68175 -0.155044 8.33033 2.7612L8.49999 3.52469L8.6692 2.76166C9.31911 -0.159609 13.033 -0.960446 14.8624 1.32041C16.0222 2.76761 15.769 4.70403 14.8145 5.88492H16.346C16.7076 5.88492 17 6.17772 17 6.53849H17ZM7.68452 5.88492L7.05376 3.04538C6.64557 1.20692 4.3081 0.703344 3.15839 2.13869C2.04555 3.52705 2.9495 5.88496 4.91979 5.88496L7.68452 5.88492ZM12.0811 5.88492C14.061 5.88492 14.9494 3.51918 13.8435 2.13818C12.6914 0.700659 10.353 1.21096 9.94576 3.04486L9.31455 5.88487L12.0811 5.88492Z" fill="#6D6D6D"/>
</svg>
