<svg width="23" height="15" viewBox="0 0 23 15" fill="none" xmlns="http://www.w3.org/2000/svg">
<path d="M11.4999 1.74778e-07C11.2052 -0.000162019 10.9226 0.112568 10.7143 0.313055C10.5061 0.513538 10.3891 0.785558 10.3891 1.06908C10.3894 1.27249 10.4499 1.47167 10.5637 1.64311C10.6774 1.81456 10.8397 1.95114 11.0313 2.03695C6.16088 2.27165 2.28696 6.14655 2.28739 10.8928C2.29093 11.0034 2.297 11.1144 2.30492 11.2248H20.7008C20.7071 11.1144 20.7108 11.0034 20.7126 10.8928C20.7128 6.14659 16.8389 2.27156 11.9687 2.03695H11.9685C12.1601 1.95114 12.3224 1.81456 12.4362 1.64311C12.5499 1.47167 12.6104 1.27248 12.6108 1.06908C12.6108 0.785716 12.494 0.5137 12.2857 0.313221C12.0774 0.112742 11.795 4.29323e-06 11.5006 4.29323e-06L11.4999 1.74778e-07ZM11.4523 11.8352L2.25537 11.8398C2.05804 11.8399 1.37791 12.1608 0.813911 12.6169C0.308533 13.0256 0 13.4616 0 13.4616V14.6821C0 14.8582 0.158908 15 0.356236 15H22.6438C22.8411 15 23 14.8582 23 14.6821V13.4616C23 13.4616 22.6915 13.0256 22.1861 12.6169C21.6221 12.1608 20.942 11.8399 20.7446 11.8398L11.5482 11.8352H11.4523Z" fill="#6D6D6D"/>
</svg>
