<svg width="20" height="21" viewBox="0 0 20 21" fill="none" xmlns="http://www.w3.org/2000/svg">
<path d="M7.38814 12.3838C8.11056 12.7025 8.93925 13.3825 11.4041 13.3825H15.2289C15.8026 13.3825 16.2701 12.915 16.2701 12.3413C16.2701 11.7675 15.8026 11.3 15.2289 11.3H15.3563C15.8875 11.3 16.355 10.9176 16.44 10.3864C16.5249 9.74893 16.015 9.19654 15.3988 9.19654H15.5262C16.0574 9.19654 16.5249 8.81414 16.6099 8.28293C16.6948 7.64543 16.1849 7.09304 15.5686 7.09304H15.7387C16.3124 7.09304 16.7799 6.62558 16.7799 6.05183C16.7799 5.47808 16.3124 5.01061 15.7387 5.01061H12.4029C12.2117 5.01061 12.0628 4.8406 12.1054 4.6494C12.3179 3.20458 12.6154 2.71574 12.7641 1.22838C12.9129 -0.216445 10.8518 -0.450179 10.5754 0.867175C10.023 3.35326 7.96191 5.01065 7.28188 5.52061C7.13307 5.62688 7.06934 5.77555 7.06934 5.94555V11.8951C7.06934 12.1075 7.19695 12.2988 7.38815 12.3838L7.38814 12.3838Z" fill="#6D6D6D"/>
<path d="M5.73127 5.64795H3.16012C2.86265 5.64795 2.62891 5.88169 2.62891 6.17916V11.7038C2.62891 12.0013 2.86265 12.235 3.16012 12.235H5.73127C6.02874 12.235 6.26249 12.0013 6.26249 11.7038V6.17916C6.26249 5.88169 6.02874 5.64795 5.73127 5.64795ZM4.45628 11.0663C4.13761 11.0663 3.90386 10.8114 3.90386 10.4926C3.90386 10.1739 4.15879 9.94016 4.45628 9.94016C4.77495 9.94016 5.00871 10.1951 5.00871 10.4926C5.00871 10.8113 4.75377 11.0663 4.45628 11.0663Z" fill="#6D6D6D"/>
<path d="M5.00815 16.7608L3.73316 16.6546C3.60569 16.6546 3.49942 16.5696 3.45688 16.442L2.9682 15.2521C2.86193 14.9759 2.4582 14.9759 2.35207 15.2521L1.86339 16.442C1.82085 16.5483 1.71458 16.6332 1.58712 16.6546L0.312126 16.7608C0.0146541 16.782 -0.112807 17.1646 0.120923 17.3558L1.09843 18.1845C1.20471 18.2694 1.2259 18.397 1.20471 18.5245L0.907234 19.7781C0.779766 20.0544 1.09844 20.2881 1.35353 20.1393L2.45849 19.4807C2.56477 19.4169 2.69224 19.4169 2.8197 19.4807L3.92466 20.1607C4.1796 20.3095 4.49841 20.097 4.43467 19.7995L4.13719 18.5459C4.116 18.4184 4.15839 18.2909 4.24347 18.2058L5.22098 17.3772C5.43323 17.1434 5.30561 16.782 5.00814 16.7609L5.00815 16.7608Z" fill="#6D6D6D"/>
<path d="M12.0833 16.7608L10.8084 16.6546C10.6809 16.6546 10.5746 16.5696 10.5321 16.442L10.0434 15.2521C9.93713 14.9759 9.5334 14.9759 9.42727 15.2521L8.93859 16.442C8.89605 16.5483 8.78978 16.6332 8.66231 16.6546L7.38732 16.7608C7.08985 16.782 6.96239 17.1646 7.19612 17.3558L8.17363 18.1845C8.2799 18.2694 8.3011 18.397 8.2799 18.5245L7.98243 19.7781C7.9187 20.0756 8.23737 20.3093 8.49243 20.1393L9.5974 19.4807C9.70367 19.4169 9.83114 19.4169 9.9586 19.4807L11.0636 20.1607C11.3185 20.3095 11.6373 20.097 11.5736 19.7995L11.1909 18.5245C11.1697 18.397 11.2121 18.2696 11.2971 18.1845L12.2747 17.3558C12.4871 17.1434 12.3808 16.782 12.0833 16.7608H12.0833Z" fill="#6D6D6D"/>
<path d="M19.3292 17.3348C19.563 17.1436 19.4355 16.761 19.138 16.7398L17.863 16.6336C17.7356 16.6336 17.6293 16.5486 17.5868 16.421L17.0981 15.2311C16.9918 14.9549 16.5881 14.9549 16.482 15.2311L15.9933 16.421C15.9507 16.5273 15.8445 16.6122 15.717 16.6336L14.442 16.7398C14.1445 16.761 14.0171 17.1436 14.2508 17.3348L15.2283 18.1635C15.3346 18.2484 15.3558 18.376 15.3346 18.5035L15.0371 19.7571C14.9734 20.0546 15.2921 20.2883 15.5471 20.1183L16.6521 19.4597C16.7584 19.3959 16.8858 19.3959 16.9921 19.4597L18.0971 20.1397C18.352 20.2885 18.6708 20.076 18.6071 19.7785L18.3096 18.5249C18.2884 18.3974 18.3308 18.2699 18.4159 18.1849L19.3292 17.3348Z" fill="#6D6D6D"/>
</svg>
