<svg width="22" height="21" viewBox="0 0 22 21" fill="none" xmlns="http://www.w3.org/2000/svg">
<path d="M5.01807 13.6526H7.41068V8.06982H5.01807V13.6526ZM5.81561 12.0575H6.61314V12.8551H5.81561V12.0575Z" fill="#6D6D6D"/>
<path d="M16.1839 8.06988H12.1962C11.976 8.06988 11.7974 7.89132 11.7974 7.67111V5.27849C11.7973 5.01395 11.7093 4.75708 11.5475 4.54772C11.3857 4.33855 11.1589 4.18883 10.903 4.12207L10.0184 7.65918C9.93228 8.00436 9.73308 8.31074 9.45269 8.52954C9.17213 8.74851 8.8266 8.86743 8.4709 8.86743H8.2085V12.8551H9.4048C9.46658 12.8544 9.52746 12.8681 9.58301 12.895C10.5769 13.3915 11.6723 13.6509 12.7831 13.6527H14.5888C14.809 13.6527 14.9876 13.4741 14.9876 13.2539C14.9876 13.0337 14.809 12.8551 14.5888 12.8551H13.3925V12.0576H14.9876C15.2078 12.0576 15.3864 11.879 15.3864 11.6588C15.3864 11.4386 15.2078 11.26 14.9876 11.26H13.7913V10.4625H15.7851C16.0053 10.4625 16.1839 10.284 16.1839 10.0637C16.1839 9.84353 16.0053 9.66497 15.7851 9.66497H14.19V8.86743H16.1839C16.4041 8.86743 16.5827 8.68887 16.5827 8.46866C16.5827 8.24845 16.4041 8.06989 16.1839 8.06989V8.06988Z" fill="#6D6D6D"/>
<path d="M19.4436 13.0147L22 10.4625L19.4434 7.9104H19.4436C19.353 7.81997 19.3113 7.69179 19.3314 7.5654L19.8993 3.99712L16.3287 3.43602V3.43619C16.2022 3.41643 16.0928 3.33703 16.0348 3.22292L14.3999 0L11.1818 1.64689C11.0677 1.70547 10.9324 1.70547 10.8182 1.64689L7.60015 0L5.96519 3.22292C5.90716 3.33703 5.79803 3.41626 5.67164 3.43619L2.10103 3.99607L2.66856 7.56435C2.68868 7.69056 2.64702 7.81892 2.55641 7.90917L0 10.4625L2.55659 13.0147H2.55641C2.64703 13.1051 2.68868 13.2333 2.66856 13.3597L2.10067 16.929L5.67128 17.4901C5.79785 17.5099 5.90716 17.5893 5.96519 17.7034L7.60014 20.9263L10.8182 19.2794V19.2792C10.9323 19.2208 11.0676 19.2208 11.1818 19.2792L14.3998 20.9261L16.0348 17.7032V17.7034C16.0928 17.5893 16.202 17.5099 16.3284 17.4901L19.899 16.929L19.3314 13.3607C19.311 13.2341 19.3526 13.1052 19.4436 13.0146V13.0147ZM13.7915 18.0391H8.20878V17.2416H13.7915V18.0391ZM9.40508 16.4441V15.6465H12.5952V16.4441H9.40508ZM16.8222 9.47723C17.0079 9.79678 17.0333 10.1847 16.8909 10.5258C16.7485 10.8667 16.4546 11.1214 16.0967 11.2139C16.2023 11.4727 16.213 11.7607 16.1268 12.0267C16.0407 12.2927 15.8632 12.5196 15.6259 12.6674C15.7293 12.8458 15.7841 13.0479 15.7854 13.254C15.7854 13.5712 15.6594 13.8757 15.435 14.0999C15.2107 14.3242 14.9063 14.4503 14.5891 14.4503H12.7834C11.5811 14.4489 10.3946 14.1761 9.31218 13.6528H8.2088V14.0515C8.2088 14.1573 8.16678 14.2587 8.09201 14.3335C8.01724 14.4083 7.91577 14.4503 7.81003 14.4503H4.61987C4.39966 14.4503 4.2211 14.2717 4.2211 14.0515V7.67121C4.2211 7.451 4.39966 7.27244 4.61987 7.27244H7.81003C7.91577 7.27244 8.01725 7.31446 8.09201 7.38922C8.16678 7.46399 8.2088 7.56547 8.2088 7.67121V8.06998H8.4712C8.64904 8.06998 8.82173 8.01052 8.96203 7.90104C9.10213 7.79156 9.20165 7.63846 9.2449 7.46577L10.2148 3.5865L10.2146 3.58668C10.2591 3.40919 10.4186 3.28475 10.6014 3.28475C11.13 3.28546 11.6368 3.49571 12.0107 3.86937C12.3843 4.24322 12.5945 4.75004 12.5953 5.2786V7.27245H16.1842C16.5322 7.27156 16.8633 7.4227 17.0907 7.68617C17.3182 7.94964 17.4193 8.29909 17.3677 8.6434C17.3161 8.98752 17.1169 9.29209 16.8222 9.47726L16.8222 9.47723Z" fill="#6D6D6D"/>
</svg>
