<svg width="11" height="13" viewBox="0 0 11 13" fill="none" xmlns="http://www.w3.org/2000/svg">
<path d="M9 8.35714C9 8.48026 8.94732 8.59841 8.85357 8.68546C8.75982 8.77251 8.63259 8.82143 8.5 8.82143H2.5C2.32132 8.82143 2.15626 8.73293 2.06697 8.58929C1.97769 8.44565 1.97769 8.26864 2.06697 8.125C2.15626 7.98136 2.32132 7.89286 2.5 7.89286H8.5C8.63259 7.89286 8.75982 7.94177 8.85357 8.02883C8.94732 8.11588 9 8.23403 9 8.35714ZM8.5 9.75H2.5C2.32132 9.75 2.15626 9.8385 2.06697 9.98214C1.97769 10.1258 1.97769 10.3028 2.06697 10.4464C2.15626 10.5901 2.32132 10.6786 2.5 10.6786H8.5C8.67868 10.6786 8.84374 10.5901 8.93303 10.4464C9.02231 10.3028 9.02231 10.1258 8.93303 9.98214C8.84374 9.83851 8.67868 9.75 8.5 9.75ZM11 2.32143V11.6071C11 11.9766 10.842 12.3308 10.5607 12.5921C10.2794 12.8533 9.89789 13 9.5 13H1.5C1.10211 13 0.720657 12.8533 0.439286 12.5921C0.158034 12.3308 0 11.9766 0 11.6071V2.32143C0 1.95196 0.158034 1.59775 0.439286 1.33648C0.720649 1.07532 1.10211 0.928571 1.5 0.928571H2.5V0.464286C2.5 0.341168 2.55268 0.223022 2.64643 0.135969C2.74018 0.0489171 2.86741 0 3 0H8C8.13259 0 8.25982 0.0489171 8.35357 0.135969C8.44732 0.223022 8.5 0.341168 8.5 0.464286V0.928571H9.5C9.89789 0.928571 10.2793 1.07532 10.5607 1.33648C10.842 1.59775 11 1.95196 11 2.32143ZM3.5 1.85714H7.5V0.928571H3.5V1.85714ZM10 2.32143C10 2.19831 9.94732 2.08016 9.85357 1.99311C9.75982 1.90606 9.63259 1.85714 9.5 1.85714H8.5V2.32143C8.5 2.44455 8.44732 2.56269 8.35357 2.64974C8.25982 2.7368 8.13259 2.78571 8 2.78571H3C2.86741 2.78571 2.74018 2.7368 2.64643 2.64974C2.55268 2.56269 2.5 2.44455 2.5 2.32143V1.85714H1.5C1.36741 1.85714 1.24018 1.90606 1.14643 1.99311C1.05268 2.08016 1 2.19831 1 2.32143V11.6071C1 11.7303 1.05268 11.8484 1.14643 11.9355C1.24018 12.0225 1.36741 12.0714 1.5 12.0714H9.5C9.63259 12.0714 9.75982 12.0225 9.85357 11.9355C9.94732 11.8484 10 11.7303 10 11.6071V2.32143ZM8.5 6.03571H2.5C2.32132 6.03571 2.15626 6.12422 2.06697 6.26786C1.97769 6.4115 1.97769 6.58851 2.06697 6.73214C2.15626 6.87578 2.32132 6.96429 2.5 6.96429H8.5C8.67868 6.96429 8.84374 6.87578 8.93303 6.73214C9.02231 6.5885 9.02231 6.41149 8.93303 6.26786C8.84374 6.12422 8.67868 6.03571 8.5 6.03571ZM8.5 4.17857H2.5C2.32132 4.17857 2.15626 4.26708 2.06697 4.41071C1.97769 4.55435 1.97769 4.73136 2.06697 4.875C2.15626 5.01864 2.32132 5.10714 2.5 5.10714H8.5C8.67868 5.10714 8.84374 5.01864 8.93303 4.875C9.02231 4.73136 9.02231 4.55435 8.93303 4.41071C8.84374 4.26708 8.67868 4.17857 8.5 4.17857Z" fill="black"/>
</svg>
