<svg width="17" height="17" viewBox="0 0 17 17" fill="none" xmlns="http://www.w3.org/2000/svg">
<path d="M11.7823 9.14033C11.5421 8.98316 11.222 9.03064 11.0411 9.25001L8.62781 12.0725C8.55369 12.1585 8.44401 12.1999 8.33134 12.1882L6.18786 11.9302C6.16122 11.9273 6.14335 11.9036 6.14335 11.877V11.628C6.14335 11.6013 6.16122 11.5805 6.18786 11.5747L7.50413 11.3523C7.75908 11.3108 7.9399 11.0944 7.9399 10.8395C7.9399 10.4333 7.6345 10.0923 7.22832 10.0538L5.61854 9.89064C5.06116 9.83141 4.51273 10.0301 4.11532 10.4273L2.23291 12.3096L2.45229 12.5111L4.73211 14.6043L4.95149 14.8058L5.35169 14.4056C5.4139 14.3432 5.50291 14.3136 5.5949 14.3196L8.08233 14.4322C8.67528 14.4827 8.97176 14.2395 9.45798 13.6378L12.0017 10.3203C12.1025 10.181 12.1559 10.0089 12.1559 9.84C12.1559 9.56123 12.0166 9.3005 11.7823 9.14032L11.7823 9.14033Z" fill="black"/>
<path d="M1.54228 12.2421C1.45741 12.1643 1.32637 12.1671 1.24498 12.2485L0.0445051 13.4488C0.0148906 13.4784 0 13.5171 0 13.5585C0 13.6 0.0178679 13.6356 0.0474825 13.6652L3.6467 16.962C3.67334 16.9887 3.70891 17.0006 3.74448 17.0006C3.78303 17.0006 3.82158 16.9857 3.85119 16.9561L5.04734 15.7601C5.13387 15.6736 5.1309 15.5323 5.04056 15.4495L1.54228 12.2421ZM1.48189 13.2329C1.68638 13.2329 1.85249 13.399 1.85249 13.6035C1.85249 13.8082 1.68638 13.9741 1.48189 13.9741C1.2774 13.9741 1.1113 13.8082 1.1113 13.6035C1.1113 13.399 1.27724 13.2329 1.48189 13.2329Z" fill="black"/>
<path d="M16.3461 7.28562C16.3136 7.21447 16.2424 7.16699 16.1594 7.16699H1.92851C1.84546 7.16699 1.77432 7.21447 1.74172 7.28562C1.72683 7.31225 1.72088 7.34203 1.72088 7.37463L1.72021 8.21179C1.72021 8.32744 1.81204 8.41926 1.92768 8.41926H16.1585C16.2742 8.41926 16.366 8.32743 16.366 8.21179L16.3667 7.37463C16.3668 7.34203 16.3609 7.31225 16.3461 7.28562H16.3461Z" fill="black"/>
<path d="M4.34672 6.81882C4.53648 6.08657 5.34288 3.63467 7.85115 2.87861C7.73252 2.96762 5.88551 4.36099 5.78772 6.81882H15.1208C14.7472 4.18908 12.5711 2.16711 9.85537 1.83209C10.0302 1.63935 10.1399 1.38158 10.1399 1.09688C10.1399 0.492192 9.64774 0 9.04306 0C8.4382 0 7.94618 0.492192 7.94618 1.09688C7.94618 1.38161 8.05587 1.63951 8.23075 1.83209C5.51498 2.16712 3.33889 4.18899 2.96533 6.81882H4.34672ZM8.36104 1.09683C8.36104 0.720284 8.66645 0.414855 9.04302 0.414855C9.41959 0.414855 9.725 0.720263 9.725 1.09683C9.725 1.47338 9.41959 1.77881 9.04302 1.77881C8.66647 1.77865 8.36104 1.47324 8.36104 1.09683Z" fill="black"/>
</svg>
